<svg xmlns="http://www.w3.org/2000/svg" width="9.825" height="14" viewBox="0 0 9.825 14">
  <path id="Address" d="M13.267,1.928A4.667,4.667,0,0,0,8.355,6.3c0,4.375,4.913,9.625,4.913,9.625S18.18,10.678,18.18,6.3a4.667,4.667,0,0,0-4.913-4.375Zm0,7.055A2.859,2.859,0,0,1,10.258,6.3a2.859,2.859,0,0,1,3.009-2.68A2.859,2.859,0,0,1,16.276,6.3,2.859,2.859,0,0,1,13.267,8.983Zm-1.9-2.68a1.809,1.809,0,0,1,1.9-1.7,1.809,1.809,0,0,1,1.9,1.7,1.809,1.809,0,0,1-1.9,1.7A1.809,1.809,0,0,1,11.364,6.3Z" transform="translate(-8.355 -1.928)" fill="#a03037"/>
</svg>
