<svg xmlns="http://www.w3.org/2000/svg" width="127.413" height="168.671" viewBox="0 0 127.413 168.671">
  <g id="Group_4218" data-name="Group 4218" transform="translate(-615.955 -1071.048)">
    <path id="Path_5732" data-name="Path 5732" d="M195.977,114.647a1.718,1.718,0,0,1-1.232-2.915l2.136-2.2a1.718,1.718,0,1,1,2.465,2.393l-2.136,2.2A1.713,1.713,0,0,1,195.977,114.647Zm0,0" transform="translate(481.799 975.587)" fill="#ff4e61"/>
    <path id="Path_5737" data-name="Path 5737" d="M173.2,198.215l-5.578,3.021a1.985,1.985,0,0,1-2.861-2.142l1.065-6.4a2.068,2.068,0,0,0-.567-1.8l-4.513-4.532a2.048,2.048,0,0,1,1.093-3.465l6.235-.933a1.974,1.974,0,0,0,1.485-1.111l2.789-5.821a1.947,1.947,0,0,1,3.537,0l2.788,5.821a1.977,1.977,0,0,0,1.485,1.111l6.236.933a2.048,2.048,0,0,1,1.092,3.465l-4.512,4.532a2.068,2.068,0,0,0-.568,1.8l1.065,6.4a1.984,1.984,0,0,1-2.86,2.142l-5.578-3.021A1.919,1.919,0,0,0,173.2,198.215Zm0,0" transform="translate(510.664 948.843)" fill="#ffd02f"/>
    <path id="Path_5747" data-name="Path 5747" d="M294.985,28.857a1.719,1.719,0,0,1-1.49-2.57L306.713,3.124a1.718,1.718,0,0,1,2.985,1.7L296.48,27.991A1.719,1.719,0,0,1,294.985,28.857Zm0,0" transform="translate(412.777 1068.791)" fill="#62d38f"/>
    <path id="Path_5748" data-name="Path 5748" d="M275.779,138.936a1.712,1.712,0,0,1-.881-.243l-.023-.014a1.718,1.718,0,0,1,1.764-2.949l.023.014a1.718,1.718,0,0,1-.883,3.192Zm0,0" transform="translate(427.537 966.53)" fill="#fa0"/>
    <path id="Path_5749" data-name="Path 5749" d="M263.272,160.853a1.709,1.709,0,0,1-.885-.247l-.023-.014a1.718,1.718,0,1,1,1.774-2.943l.023.014a1.718,1.718,0,0,1-.889,3.19Zm0,0" transform="translate(437.137 949.708)" fill="#2dc471"/>
    <path id="Path_5751" data-name="Path 5751" d="M153.414,138.936a1.718,1.718,0,0,1-.887-3.191l.024-.014a1.718,1.718,0,0,1,1.77,2.946l-.023.014A1.712,1.712,0,0,1,153.414,138.936Zm0,0" transform="translate(514.471 955.265)" fill="#ff4e61"/>
    <path id="Path_5752" data-name="Path 5752" d="M165.922,160.853a1.719,1.719,0,0,1-.893-3.188l.023-.014a1.718,1.718,0,1,1,1.781,2.939l-.023.014A1.709,1.709,0,0,1,165.922,160.853Zm0,0" transform="translate(504.87 938.443)" fill="#fa0"/>
    <path id="Path_5753" data-name="Path 5753" d="M367.609,300.705,364,303.4a1.394,1.394,0,0,1-2.214-1.2l.117-4.591a1.454,1.454,0,0,0-.574-1.2l-3.6-2.7a1.455,1.455,0,0,1,.424-2.541l4.275-1.3a1.416,1.416,0,0,0,.93-.933l1.38-4.367a1.379,1.379,0,0,1,2.476-.37l2.525,3.785a1.385,1.385,0,0,0,1.149.623l4.458,0a1.441,1.441,0,0,1,1.106,2.313l-2.714,3.643a1.473,1.473,0,0,0-.221,1.318l1.376,4.369a1.416,1.416,0,0,1-1.793,1.8l-4.2-1.534A1.361,1.361,0,0,0,367.609,300.705Zm0,0" transform="translate(365.354 850.184)" fill="#ffd02f"/>
    <path id="Path_5755" data-name="Path 5755" d="M79.375,344.3l2.735,3.627a1.381,1.381,0,0,0,2.452-.518l1.13-4.443a1.423,1.423,0,0,1,.876-.987l4.193-1.559a1.455,1.455,0,0,0,.281-2.561l-3.752-2.481a1.452,1.452,0,0,1-.641-1.163l-.143-4.591a1.39,1.39,0,0,0-2.277-1.066l-3.449,2.909a1.365,1.365,0,0,1-1.272.269l-4.282-1.278a1.42,1.42,0,0,0-1.688,1.9l1.62,4.279a1.474,1.474,0,0,1-.145,1.329l-2.5,3.8a1.437,1.437,0,0,0,1.235,2.242l4.45-.265A1.379,1.379,0,0,1,79.375,344.3Zm0,0" transform="translate(562.026 805.179)" fill="#ffd02f"/>
    <path id="Path_5757" data-name="Path 5757" d="M238.475,40.215a4.613,4.613,0,1,0-4.611,4.751A4.682,4.682,0,0,0,238.475,40.215Zm0,0" transform="translate(450.648 1063.686)" fill="#ffd02f"/>
    <g id="Group_4133" data-name="Group 4133" transform="translate(647.826 1205.279)">
      <path id="Path_5766" data-name="Path 5766" d="M107.868,246.266a1.307,1.307,0,0,1-.935-2.22l.015-.014a1.307,1.307,0,1,1,1.87,1.827l-.014.015A1.3,1.3,0,0,1,107.868,246.266Zm0,0" transform="translate(-94.372 -238.693)" fill="#fa0"/>
      <path id="Path_5765" data-name="Path 5765" d="M125.32,264.242a1.307,1.307,0,0,1-.937-2.217l.014-.015a1.307,1.307,0,0,1,1.876,1.821l-.015.015A1.3,1.3,0,0,1,125.32,264.242Zm0,0" transform="translate(-108.739 -253.491)" fill="#5c73bc"/>
      <path id="Path_5731" data-name="Path 5731" d="M95.837,476.384a1.307,1.307,0,0,1-.937-2.218l1.624-1.673a1.307,1.307,0,0,1,1.876,1.821l-1.625,1.673A1.3,1.3,0,0,1,95.837,476.384Zm0,0" transform="translate(-79.994 -448.793)" fill="#ff4e61"/>
      <path id="Path_5734" data-name="Path 5734" d="M407.719,443.811a1.307,1.307,0,0,1-.938-2.217l1.625-1.674a1.307,1.307,0,0,1,1.876,1.821l-1.625,1.674A1.3,1.3,0,0,1,407.719,443.811Zm0,0" transform="translate(-336.734 -417.898)" fill="#fa0"/>
      <path id="Path_5738" data-name="Path 5738" d="M214.154,404.673a1.307,1.307,0,0,1-1.307-1.307V382.928a1.307,1.307,0,1,1,2.613,0v20.437A1.307,1.307,0,0,1,214.154,404.673Zm0,0" transform="translate(-177.392 -370.234)" fill="#5c73bc"/>
      <path id="Path_5739" data-name="Path 5739" d="M214.116,345.251h-.02a1.307,1.307,0,1,1,0-2.614h.02a1.307,1.307,0,0,1,0,2.614Zm0,0" transform="translate(-177.344 -338.142)" fill="#5c73bc"/>
      <path id="Path_5740" data-name="Path 5740" d="M214.116,319.828h-.026a1.307,1.307,0,0,1,.006-2.613h.026a1.307,1.307,0,0,1-.005,2.613Zm0,0" transform="translate(-177.344 -317.215)" fill="#fa0"/>
      <path id="Path_5754" data-name="Path 5754" d="M255.424,378.671a1.307,1.307,0,0,1-1.307-1.307,31.52,31.52,0,0,1,7.423-20.917,27.183,27.183,0,0,1,7.512-6.271,1.307,1.307,0,0,1,1.183,2.331,25.132,25.132,0,0,0-6.783,5.727,28.7,28.7,0,0,0-6.721,19.129A1.307,1.307,0,0,1,255.424,378.671Zm0,0" transform="translate(-211.365 -344.232)" fill="#ff4e61"/>
      <path id="Path_5756" data-name="Path 5756" d="M155.855,429.636a1.307,1.307,0,0,1-1.307-1.307,29.841,29.841,0,0,0-3.51-14.451,1.307,1.307,0,0,1,2.3-1.251,32.436,32.436,0,0,1,3.828,15.7A1.307,1.307,0,0,1,155.855,429.636Zm0,0" transform="translate(-126.38 -395.197)" fill="#fa0"/>
      <path id="Path_5758" data-name="Path 5758" d="M340.424,429.992a3.508,3.508,0,1,0-3.506,3.613A3.561,3.561,0,0,0,340.424,429.992Zm0,0" transform="translate(-276.639 -407.078)" fill="#5c73bc"/>
      <path id="Path_5759" data-name="Path 5759" d="M17.938,437.366a2.814,2.814,0,1,0-2.813,2.9A2.856,2.856,0,0,0,17.938,437.366Zm0,0" transform="translate(-12.313 -417.818)" fill="#62d38f"/>
    </g>
    <path id="Path_5733" data-name="Path 5733" d="M408.131,81.779a1.718,1.718,0,0,1-1.233-2.915l2.137-2.2a1.718,1.718,0,0,1,2.466,2.393l-2.136,2.2A1.713,1.713,0,0,1,408.131,81.779Zm0,0" transform="translate(320.569 1020.663)" fill="#5c73bc"/>
    <path id="Path_5735" data-name="Path 5735" d="M57.4,94.3a1.718,1.718,0,0,1-1.232-2.915l2.136-2.2a1.718,1.718,0,0,1,2.465,2.393l-2.136,2.2A1.713,1.713,0,0,1,57.4,94.3Zm0,0" transform="translate(587.093 1008.907)" fill="#fa0"/>
    <path id="Path_5736" data-name="Path 5736" d="M6.637,260.21a1.718,1.718,0,0,1-1.232-2.915l2.136-2.2a1.718,1.718,0,1,1,2.466,2.393l-2.136,2.2A1.712,1.712,0,0,1,6.637,260.21Zm0,0" transform="translate(611.035 874.588)" fill="#2dc471"/>
    <path id="Path_5741" data-name="Path 5741" d="M20.661,156.812a1.713,1.713,0,0,1-1.233-.521l-18.442-19A1.718,1.718,0,0,1,3.451,134.9l18.443,19a1.718,1.718,0,0,1-1.233,2.915Zm0,0" transform="translate(629.448 973.819)" fill="#ff4e61"/>
    <path id="Path_5742" data-name="Path 5742" d="M108.279,247.093a1.719,1.719,0,0,1-1.229-2.919l.019-.019a1.718,1.718,0,0,1,2.458,2.4l-.018.019A1.715,1.715,0,0,1,108.279,247.093Zm0,0" transform="translate(548.04 889.955)" fill="#fa0"/>
    <path id="Path_5743" data-name="Path 5743" d="M125.731,265.069a1.718,1.718,0,0,1-1.232-2.915l.018-.02a1.719,1.719,0,0,1,2.466,2.394l-.019.019A1.713,1.713,0,0,1,125.731,265.069Zm0,0" transform="translate(534.644 876.157)" fill="#5c73bc"/>
    <path id="Path_5744" data-name="Path 5744" d="M347.571,153.906a1.718,1.718,0,0,1-1.232-2.915l18.442-19a1.718,1.718,0,1,1,2.466,2.393l-18.443,19A1.713,1.713,0,0,1,347.571,153.906Zm0,0" transform="translate(375.635 973.367)" fill="#fa0"/>
    <path id="Path_5745" data-name="Path 5745" d="M320.788,244.191a1.71,1.71,0,0,1-1.225-.514l-.019-.019A1.718,1.718,0,0,1,322,241.249l.019.019a1.719,1.719,0,0,1-1.226,2.923Zm0,0" transform="translate(396.207 889.501)" fill="#ff4e61"/>
    <path id="Path_5746" data-name="Path 5746" d="M303.338,262.168a1.713,1.713,0,0,1-1.233-.521l-.019-.019a1.719,1.719,0,0,1,2.466-2.394l.019.019a1.719,1.719,0,0,1-1.233,2.916Zm0,0" transform="translate(409.601 875.702)" fill="#fa0"/>
    <path id="Path_5750" data-name="Path 5750" d="M90.637,28.856a1.718,1.718,0,0,1-1.495-.867L75.925,4.826a1.718,1.718,0,0,1,2.985-1.7L92.127,26.286a1.718,1.718,0,0,1-1.49,2.571Zm0,0" transform="translate(571.728 1075.228)" fill="#5c73bc"/>
    <path id="Path_5760" data-name="Path 5760" d="M63.751,275.774a3.7,3.7,0,1,0-3.7,3.81A3.754,3.754,0,0,0,63.751,275.774Zm0,0" transform="translate(566.191 863.384)" fill="#5c73bc"/>
    <path id="Path_5761" data-name="Path 5761" d="M186.419,3.81a3.7,3.7,0,1,0-7.4,0,3.7,3.7,0,1,0,7.4,0Zm0,0" transform="translate(492.421 1076.96)" fill="#ff4e61"/>
    <path id="Path_5762" data-name="Path 5762" d="M340.8,140.3a3.7,3.7,0,1,0-3.7,3.809A3.756,3.756,0,0,0,340.8,140.3Zm0,0" transform="translate(376.606 974.341)" fill="#ff4e61"/>
    <path id="Path_5763" data-name="Path 5763" d="M134.283,14.131a1.718,1.718,0,0,1-1.233-2.915l2.137-2.2a1.718,1.718,0,1,1,2.465,2.393l-2.136,2.2A1.715,1.715,0,0,1,134.283,14.131Zm0,0" transform="translate(528.081 1070.441)" fill="#ff4e61"/>
  </g>
</svg>
